<?xml version="1.0" encoding="UTF-8"?>
<svg enable-background="new 0 0 404.7 98.2" version="1.1" viewBox="0 0 404.7 98.2" xml:space="preserve" xmlns="http://www.w3.org/2000/svg">
<style type="text/css">
    .st0{opacity:0.5;}
    .st1{fill:#3d46fe;}
    .st2{display:none;}
    .st3{display:inline;fill:#5880FA;}
    .st4{display:inline;}
    .st5{fill:#2F36C9;}
</style>
    <g class="st0">
            <path class="st1" d="m6.6 88.6c-0.9-0.5-1.9-1.4-2.5-2.2-1.9-2.9-0.8-6.4 4.4-14.3 7.7-11.6 17.4-20.1 26.9-23.5l2.2-0.8-2.6-4c-2.9-4.5-3.5-6.3-3.3-9.9 0.1-2 0.7-3.5 5.1-13 3.4-7.5 5.3-11.1 6-11.9 1.3-1.3 3.4-2 5-1.7 1.4 0.3 3.4 2 4.6 3.8 1.4 2.2 15.7 25.5 30.7 50.1 7.5 12.2 14.4 23.5 15.5 25s1.9 2.9 1.9 2.9c0 0.1-7.3 0.1-16.2 0.1l-16.1-0.1-2.3-1.1c-3.6-1.8-2.5-0.4-17.1-23l-6.4-9.9-1.5 0.2c-1.9 0.2-5.8 1.8-8.9 3.7-6.2 3.7-13.6 11.8-19.1 21l-0.8 1.3h22l-3.3-4.8c-1.8-2.7-3.4-5-3.5-5.3-0.3-0.5 6.1-4.9 6.5-4.5 0.2 0.3 2.9 4.2 8.2 12 1.4 2.1 1.7 2.9 1.9 4.6 0.1 1.8 0.1 2.3-0.7 3.3-0.5 0.7-1.5 1.6-2.4 2-1.6 0.8-1.7 0.8-17.1 0.8-15.2 0-15.6-0.1-17.1-0.8zm78.5-7.8c-1-1.7-7-8.5-10.3-11.9-4.8-4.7-9.1-8-13.4-10.3-3.1-1.7-8.3-3.6-9-3.4-0.3 0.1 0.5 1.5 1.9 3.7 1.3 1.9 4.8 7.3 7.8 12 3 4.6 5.9 8.9 6.4 9.4l1 1h8c6.1-0.1 7.8-0.2 7.6-0.5zm-16.5-27.9c-0.2-0.4-3.5-5.9-7.4-12.1-3.8-6.2-8.6-14-10.6-17.3-2-3.2-3.7-5.9-3.7-5.8-0.5 0.6-7.6 16.6-7.6 17.3 0 0.8 1.7 3.7 5.3 9.1l1.6 2.3 3.2 0.2c3.5 0.2 5.9 0.7 9.4 2 2.4 0.8 6.8 3 8.6 4.2 1.5 1.1 1.7 1.1 1.2 0.1z"/>
    </g>
        <path class="st1" d="m10.3 89.2c-0.9-0.5-1.9-1.4-2.5-2.2-1.9-2.9-0.9-6.4 4.3-14.4 7.7-11.6 17.4-20.1 26.9-23.4l2.2-0.8-2.6-4c-2.9-4.5-3.5-6.3-3.3-9.9 0.1-2 0.7-3.5 5.1-13 3.4-7.5 5.3-11.1 6-11.9 1.3-1.3 3.4-2 5-1.7 1.4 0.3 3.4 2 4.6 3.8 1.4 2.2 15.7 25.5 30.7 50.1 7.5 12.2 14.4 23.5 15.5 25s1.9 2.9 1.9 2.9c0 0.1-7.3 0.1-16.2 0.1l-16.1-0.1-2.3-1.1c-3.6-1.8-2.5-0.4-17.1-23l-6.4-9.9-1.5 0.2c-1.9 0.2-5.8 1.8-8.9 3.7-6.2 3.7-13.6 11.8-19.1 21l-0.8 1.3h22l-3.2-4.9c-1.8-2.7-3.4-5-3.5-5.3-0.3-0.5 6.1-4.9 6.5-4.5 0.2 0.3 2.9 4.2 8.2 12 1.4 2.1 1.7 2.9 1.9 4.6 0.1 1.8 0.1 2.3-0.7 3.3-0.5 0.7-1.5 1.6-2.4 2-1.6 0.8-1.7 0.8-17.1 0.8-15.2 0-15.6 0-17.1-0.7zm78.4-7.8c-1-1.7-7-8.5-10.3-11.9-4.8-4.7-9.1-8-13.4-10.3-3.1-1.7-8.3-3.6-9-3.4-0.3 0.1 0.5 1.5 1.9 3.7 1.3 1.9 4.8 7.3 7.8 12 3 4.6 5.9 8.9 6.4 9.4l1 1h8c6.2-0.1 7.8-0.2 7.6-0.5zm-16.4-27.9c-0.2-0.4-3.5-5.9-7.4-12.1-3.8-6.2-8.6-14-10.6-17.3-2-3.2-3.7-5.9-3.7-5.8-0.5 0.6-7.6 16.6-7.6 17.3 0 0.8 1.7 3.7 5.3 9.1l1.6 2.3 3.2 0.2c3.5 0.2 5.9 0.7 9.4 2 2.4 0.8 6.8 3 8.6 4.2 1.4 1 1.7 1 1.2 0.1z"/>
<g class="st2">
        <path class="st3" d="m131 65.9h-10.2l-0.9-8h-14.4l-4.6 8h-10.6l23.5-39.3h11.7l5.5 39.3zm-11.9-15.1l-1.6-14-8 14h9.6z"/>
        <path class="st3" d="m175.7 36.5c0 3.1-1 5.8-2.9 7.9s-4.5 3.8-7.8 4.9l9.1 16.6h-11.3l-7.4-14.4h-5.7l-3.3 14.4h-10.1l9.1-39.3h15.3c4.8 0 8.5 0.8 11.1 2.4 2.6 1.7 3.9 4.2 3.9 7.5zm-11 1.7c0-1.6-0.5-2.7-1.5-3.4s-2.5-1-4.5-1h-5l-2.4 10.5h5c2.7 0 4.8-0.5 6.2-1.6 1.5-1 2.2-2.5 2.2-4.5z"/>
        <path class="st3" d="m199.7 65.9h-23l1.6-7h6.4l5.9-25.3h-6.4l1.6-7h23l-1.6 7h-6.4l-5.9 25.3h6.4l-1.6 7z"/>
        <path class="st3" d="m251.4 41.2c0 3.2-0.5 6.4-1.6 9.5s-2.7 5.8-4.7 8.1c-2.3 2.5-4.9 4.5-7.9 5.8s-6.5 2-10.4 2c-5.4 0-9.6-1.4-12.6-4.2s-4.5-6.6-4.5-11.4c0-3.4 0.6-6.7 1.7-9.7 1.2-3.1 2.8-5.8 5-8.1 2.1-2.3 4.7-4.1 7.8-5.4 3.1-1.4 6.5-2 10.2-2 5.4 0 9.6 1.4 12.6 4.2 2.9 2.8 4.4 6.5 4.4 11.2zm-14.5 13.4c1.2-1.6 2.1-3.4 2.8-5.4 0.7-2.1 1-4.4 1-7.1 0-2.8-0.7-5-2-6.6s-3.3-2.4-5.8-2.4c-1.6 0-3.2 0.4-4.7 1.1s-2.9 1.9-4.1 3.4-2.2 3.3-2.9 5.4c-0.7 2.2-1.1 4.6-1.1 7.3 0 3 0.7 5.3 2.1 6.8s3.3 2.3 5.7 2.3c1.7 0 3.3-0.4 4.9-1.3 1.6-0.7 3-1.9 4.1-3.5z"/>
        <path class="st3" d="m289.6 65.9h-8.6l-11.5-27.2-6.3 27.2h-9.3l9.1-39.3h11.3l9.9 22.7 5.2-22.7h9.4l-9.2 39.3z"/>
        <path class="st3" d="m343.1 26.6l-5.7 24.5c-1.3 5.4-3.5 9.4-6.5 11.8s-7.5 3.7-13.3 3.7c-5.2 0-9.1-0.9-11.7-2.8-2.7-1.9-4-4.7-4-8.4 0-0.8 0.1-1.6 0.2-2.3s0.3-1.5 0.4-2.2l5.6-24.3h10.2l-5.6 24.4c-0.1 0.5-0.2 1-0.3 1.6s-0.1 1.1-0.1 1.5c0 1.7 0.5 2.9 1.5 3.8s2.6 1.3 4.9 1.3c2.2 0 4-0.6 5.4-1.8s2.4-3.1 3-5.7l5.8-24.9h10.2v-0.2z"/>
        <path class="st3" d="m384.6 65.9h-10.1l5.9-25.7-10.8 16.5h-7l-3.5-17.5-6.1 26.7h-9.6l9.1-39.3h11.6l4.3 19.7 13.3-19.7h11.9l-9 39.3z"/>
    <g class="st4">
        <path class="st5" d="m135 67.8h-10.2l-0.9-8h-14.4l-4.6 8h-10.6l23.5-39.3h11.7l5.5 39.3zm-11.8-15.1l-1.6-14-8 14h9.6z"/>
        <path class="st5" d="m179.7 38.4c0 3.1-1 5.8-2.9 7.9s-4.5 3.8-7.8 4.9l9.1 16.6h-11.3l-7.4-14.4h-5.7l-3.3 14.4h-10.1l9.1-39.3h15.3c4.8 0 8.5 0.8 11.1 2.4 2.6 1.7 3.9 4.2 3.9 7.5zm-10.9 1.7c0-1.6-0.5-2.7-1.5-3.4s-2.5-1-4.5-1h-5l-2.4 10.5h5c2.7 0 4.8-0.5 6.2-1.6 1.4-1 2.2-2.5 2.2-4.5z"/>
        <path class="st5" d="m203.7 67.8h-23l1.6-7h6.4l5.9-25.3h-6.4l1.6-7h23l-1.6 7h-6.4l-5.9 25.3h6.4l-1.6 7z"/>
        <path class="st5" d="m255.4 43.1c0 3.2-0.5 6.4-1.6 9.5s-2.7 5.8-4.7 8.1c-2.3 2.5-4.9 4.5-7.9 5.8s-6.5 2-10.4 2c-5.4 0-9.6-1.4-12.6-4.2s-4.5-6.6-4.5-11.4c0-3.4 0.6-6.7 1.7-9.7 1.2-3.1 2.8-5.8 5-8.1 2.1-2.3 4.7-4.1 7.8-5.4 3.1-1.4 6.5-2 10.2-2 5.4 0 9.6 1.4 12.6 4.2 2.9 2.8 4.4 6.5 4.4 11.2zm-14.5 13.4c1.2-1.6 2.1-3.4 2.8-5.4 0.7-2.1 1-4.4 1-7.1 0-2.8-0.7-5-2-6.6s-3.3-2.4-5.8-2.4c-1.6 0-3.2 0.4-4.7 1.1s-2.9 1.9-4.1 3.4-2.2 3.3-2.9 5.4c-0.7 2.2-1.1 4.6-1.1 7.3 0 3 0.7 5.3 2.1 6.8s3.3 2.3 5.7 2.3c1.7 0 3.3-0.4 4.9-1.3s3-1.9 4.1-3.5z"/>
        <path class="st5" d="m293.7 67.8h-8.7l-11.5-27.2-6.3 27.2h-9.3l9.1-39.3h11.3l9.9 22.7 5.2-22.7h9.4l-9.1 39.3z"/>
        <path class="st5" d="m347.1 28.5l-5.7 24.5c-1.3 5.4-3.5 9.4-6.5 11.8s-7.5 3.7-13.3 3.7c-5.2 0-9.1-0.9-11.7-2.8s-4-4.7-4-8.4c0-0.8 0.1-1.6 0.2-2.3s0.3-1.5 0.4-2.2l5.6-24.3h10.2l-5.6 24.3c-0.1 0.5-0.2 1-0.3 1.6s-0.1 1.1-0.1 1.5c0 1.7 0.5 2.9 1.5 3.8s2.6 1.3 4.9 1.3c2.2 0 4-0.6 5.4-1.8s2.4-3.1 3-5.7l5.8-24.9 10.2-0.1z"/>
        <path class="st5" d="m388.6 67.8h-10.1l5.9-25.7-10.8 16.5h-7l-3.4-17.6-6.2 26.8h-9.6l9.1-39.3h11.6l4.3 19.7 13.3-19.7h11.9l-9 39.3z"/>
    </g>
</g>
    <path class="st1" d="m144.1 72.4h-7.3l-2.4-11h-9.4l-2.4 11h-7.3l11.2-51.1h6.4l11.2 51.1zm-10.6-17.4l-3.9-19.4-3.9 19.4h7.8z"/>
    <path class="st1" d="m155.8 21.3h9.6c2 0 3.5 0 4.4 0.1 0.9 0 2.3 0.4 4 1s3.1 1.6 4.2 2.9c1.8 2.2 2.7 5.2 2.7 8.9v3.9c0 3.4-0.9 6.1-2.7 8.1-1 1.1-2.3 2-3.9 2.6l8 23.6h-7.6l-7.1-22h-4.3v22h-7.3v-51.1zm7.3 6.6v15.9h4.2c1.8 0 3.4-0.6 4.5-1.7 1-1 1.5-2.5 1.5-4.6v-3.6c0-2-0.6-3.6-1.7-4.7-0.9-0.9-2.5-1.3-4.7-1.3h-3.8z"/>
    <path class="st1" d="M194.4,21.3h7.3v51.1h-7.3V21.3z"/>
    <path class="st1" d="m215.3 59v-24.3c0-2.4 0.2-4.4 0.7-6.1s1.5-3.3 3.1-4.7c2.3-2.2 5.3-3.3 9-3.3 3.6 0 6.6 1.1 9 3.3 1.6 1.5 2.6 3 3.1 4.7s0.7 3.7 0.7 6.1v24.3c0 2.4-0.2 4.4-0.7 6.1s-1.5 3.3-3.1 4.7c-2.3 2.2-5.3 3.3-9 3.3s-6.6-1.1-9-3.3c-1.6-1.5-2.6-3-3.1-4.7s-0.7-3.7-0.7-6.1zm18.3 1.1v-26.4c0-1.9-0.5-3.4-1.5-4.5-1-1-2.3-1.5-3.9-1.5-1.7 0-3 0.5-3.9 1.5-1 1-1.5 2.5-1.5 4.5v26.4c0 1.9 0.5 3.4 1.5 4.5 1 1 2.3 1.5 3.9 1.5 1.7 0 3-0.5 3.9-1.5 1-1.1 1.5-2.6 1.5-4.5z"/>
    <path class="st1" d="M254.4,21.3h7.3l12.2,32.1V21.3h7.3v51.1h-7.3l-12.2-32.1v32.1h-7.3V21.3z"/>
    <path class="st1" d="m294.9 21.3h7.3v38.8c0 1.8 0.4 3.2 1.3 4.3s2.1 1.6 3.6 1.6c1.6 0 2.8-0.5 3.6-1.6 0.9-1.1 1.3-2.5 1.3-4.3v-38.8h7.3v37.7c0 2.7-0.4 5-1.1 6.9s-1.7 3.4-3 4.4c-1.2 1-2.5 1.7-3.9 2.2-1.3 0.4-2.8 0.7-4.3 0.7s-2.9-0.2-4.3-0.7c-1.3-0.4-2.6-1.2-3.9-2.2-1.2-1-2.2-2.5-3-4.4-0.7-1.9-1.1-4.3-1.1-6.9v-37.7z"/>
    <path class="st1" d="M333.1,72.4V21.3h7.3l10.1,28.2h0.3l9.6-28.2h7.3v51.1h-7.3v-32H360l-7.7,23.1h-3.9l-7.7-23.1h-0.4v32H333.1z"/>
</svg>
