<?xml version="1.0" standalone="no"?>
<!DOCTYPE svg PUBLIC "-//W3C//DTD SVG 20010904//EN"
 "http://www.w3.org/TR/2001/REC-SVG-20010904/DTD/svg10.dtd">
<svg version="1.0" xmlns="http://www.w3.org/2000/svg"
 width="700.000000pt" height="700.000000pt" viewBox="0 0 700.000000 700.000000"
 preserveAspectRatio="xMidYMid meet">
<metadata>
Created by potrace 1.11, written by Peter Selinger 2001-2013
</metadata>
<g transform="translate(0.000000,700.000000) scale(0.100000,-0.100000)"
fill="#000000" stroke="none">
<path d="M3095 6443 c-121 -29 -206 -79 -261 -155 -34 -47 -196 -363 -272
-528 -16 -36 -51 -109 -76 -163 -25 -55 -46 -100 -46 -102 0 -2 -25 -56 -55
-120 -30 -65 -55 -118 -55 -120 0 -1 -20 -45 -44 -96 -69 -149 -152 -348 -177
-424 -39 -124 -34 -393 10 -490 5 -11 21 -46 35 -78 30 -69 126 -230 248 -417
48 -74 85 -137 80 -141 -4 -3 -65 -28 -137 -54 -443 -163 -812 -411 -1220
-820 -295 -296 -581 -662 -782 -1005 -27 -47 -59 -101 -71 -120 -12 -19 -38
-69 -58 -110 -154 -317 -157 -495 -8 -644 76 -76 149 -119 224 -133 62 -11
352 -15 1100 -15 883 0 1020 3 1106 22 107 24 234 122 285 219 42 81 21 274
-42 390 -28 50 -119 189 -234 356 -68 98 -145 211 -250 365 -134 198 -138 203
-154 222 -12 16 -17 16 -63 -8 -100 -51 -293 -185 -371 -258 -27 -25 -27 -27
-12 -56 9 -17 101 -160 206 -316 104 -157 189 -288 189 -290 0 -3 11 -20 25
-38 14 -18 25 -37 25 -42 0 -5 -315 -9 -764 -9 l-765 0 22 35 c163 272 306
478 494 715 113 142 373 416 513 540 209 186 476 353 710 444 25 10 54 22 65
26 11 5 22 9 25 10 3 1 35 11 72 23 36 11 93 24 125 27 32 4 65 8 74 11 13 3
59 -61 185 -256 93 -143 195 -299 226 -347 31 -49 76 -119 101 -158 24 -38
121 -188 215 -333 95 -145 172 -266 172 -268 0 -3 5 -10 10 -17 6 -7 96 -141
200 -300 104 -158 194 -293 200 -300 6 -6 33 -42 60 -79 68 -91 132 -152 202
-193 33 -19 61 -35 63 -35 2 0 46 -21 97 -46 l93 -46 1095 -2 c602 -1 1110 1
1129 4 l33 5 -89 135 c-107 162 -387 604 -438 692 -10 16 -125 204 -155 253
-8 13 -50 81 -93 152 -44 70 -123 200 -178 288 -54 88 -127 206 -161 263 -80
130 -32 52 -477 779 -211 346 -418 684 -461 753 -98 157 -399 651 -422 691
-10 16 -163 265 -339 552 -177 287 -329 534 -338 549 -128 219 -230 373 -297
446 -53 59 -166 143 -212 157 -30 9 -112 14 -137 8z m186 -928 c68 -107 132
-210 143 -228 23 -40 500 -820 531 -867 77 -119 673 -1095 692 -1132 8 -15 18
-30 24 -33 5 -4 9 -15 9 -27 0 -26 -5 -24 -127 50 -324 196 -725 352 -1003
391 -119 17 -277 30 -400 35 l-45 1 -77 110 c-121 173 -308 471 -361 574 -38
76 -46 101 -41 125 5 28 99 263 144 361 10 23 39 88 63 145 25 58 58 134 75
170 16 36 44 99 62 140 18 41 59 131 91 199 33 67 59 125 59 127 0 5 31 54 35
54 1 0 58 -88 126 -195z m406 -2461 c59 -20 122 -42 138 -49 17 -7 53 -22 80
-33 79 -31 243 -112 323 -159 41 -24 78 -43 83 -43 5 0 9 -4 9 -10 0 -5 5 -10
11 -10 33 0 424 -297 559 -425 36 -34 99 -93 140 -131 41 -38 104 -101 140
-139 172 -185 286 -313 435 -486 80 -93 205 -254 205 -265 0 -6 -11 -15 -25
-18 -74 -19 -1026 -28 -1060 -10 -30 15 -63 51 -122 130 -57 78 -342 504 -483
724 -107 168 -151 235 -322 495 -155 237 -242 379 -263 428 l-15 37 29 0 c16
0 78 -16 138 -36z"/>
</g>
</svg>
