<?xml version="1.0" encoding="UTF-8"?>
<!DOCTYPE svg>
<svg version="1.0" viewBox="0 0 2850 2410" xmlns="http://www.w3.org/2000/svg">
    <g fill="#004abd">
        <path d="m152 2309c-25-13-55-39-70-62-55-82-25-182 122-407 217-330 492-571 762-665l62-22-73-113c-83-127-100-179-93-281 4-57 20-99 144-369 97-212 149-314 171-337 37-36 95-56 141-47 39 8 97 56 129 108 41 63 445 724 871 1421 212 347 409 665 438 708 30 43 54 81 54 83 0 3-206 3-458 2l-457-3-65-32c-101-50-72-10-485-653l-180-281-43 6c-54 6-163 51-251 104-177 105-386 335-540 594l-23 37h312 311l-94-137c-51-76-96-143-100-149-8-14 172-140 183-128 7 8 83 118 233 340 41 60 49 81 54 130 4 50 2 64-19 94-13 19-43 45-68 58-44 22-48 22-485 22-430 0-441-1-483-21zm2222-221c-27-47-197-242-293-338-135-134-257-228-379-293-89-47-234-101-256-95-8 2 13 42 53 104 36 55 135 208 220 340 84 131 166 251 182 267l29 27h226c177 0 224-3 218-12zm-465-790c-6-12-100-166-209-342-108-177-243-397-299-489-57-92-105-167-106-165-15 16-215 471-215 490 0 23 48 106 150 259l44 66 91 7c99 7 167 21 265 56 68 24 193 85 245 119 40 26 48 26 34-1z"/>
    </g>
    <g fill="#187bf9">
        <path d="m152 2309c-25-13-55-39-70-62-55-82-25-182 122-407 217-330 492-571 762-665l62-22-73-113c-83-127-100-179-93-281 4-57 20-99 144-369 97-212 149-314 171-337 37-36 95-56 141-47 39 8 96 56 129 108 134 211 323 529 323 542 0 10 3 14 7 11 6-7 73 96 73 114 0 5 5 9 11 9 5 0 7 4 4 10s-2 10 3 10c9 0 55 77 59 100 1 8 9 20 17 26 9 6 13 14 9 17-3 4 2 9 11 13 9 3 13 10 10 15s0 9 5 9c6 0 11 7 11 15s3 15 8 15c4 0 13 9 20 21 10 15 10 19 1 14-6-5-3 7 7 25s25 34 32 37c19 8 15 33-5 27-17-5-17-5 0 6 9 6 22 8 27 5 10-6 13 3 13 37 0 9 5 14 13 11s12 4 10 21c-3 23-1 24 12 14 10-9 13-9 9-1-4 6-1 14 5 16 8 3 6 6-4 6-10 1-18 6-18 12s7 8 16 5c10-4 13-2 8 6s-1 9 12 4c16-6 16-4-4 17-12 13-22 28-22 34s-7 16-15 23c-17 14-20 30-4 30 5 0 7-4 4-10-3-5-1-10 4-10 6 0 11 16 11 36 0 19 5 44 10 55 7 11 7 19 1 19-5 0-12-6-14-12-3-8-6-8-6-2-1 14 55 64 63 57 3-4 6 0 6 8s16 25 35 39 33 32 32 40 7 16 19 18c11 2 43 26 70 54s41 48 32 45c-11-4-18-1-18 7s-10 11-31 8c-29-4-30-3-20 17 10 17 9 21-4 21-14 0-14 2-3 13 7 7 21 16 31 20s15 12 12 17c-5 8-11 8-19 1-9-8-13-7-13 4 0 8 4 12 9 9 8-5 9-4 13 32 1 12 5 26 8 32 7 10-28 24-38 14-3-3-12-7-20-8-12-2-12 2-4 17s14 17 29 9c24-13 27-13 27 5 0 8-4 12-9 9-4-3-8 1-8 9s-7 18-16 21c-14 5-15 4-4-9 12-15 4-21-23-16-5 1-6-2-4-6 7-11-19-33-29-25-5 4-2-2 6-12 8-11 10-17 4-13-14 8-107-80-98-94 3-5 1-8-4-7-5 2-31-20-58-47-27-28-66-64-86-79-21-16-35-33-31-40 3-6 3-8-2-4-4 4-44-21-89-56-44-35-124-86-176-114-95-51-241-106-264-100-8 2 11 39 49 98 176 268 305 471 305 480 0 5 4 10 8 10 5 0 18 17 30 38 30 54 78 113 86 105 3-3 6-2 6 3s98 9 232 9l233-1-205 6c-113 3-178 7-145 9s74 3 90 3c29-1 29-1 5 7-21 8-17 9 24 10 47 1 58 10 20 15-14 2-18 11-18 37 4 132 3 127 27 132 12 3-50 4-138 4-160-2-161-2-227-35-60-29-157-117-144-129 2-3-3-12-11-21-16-18-143-212-373-571l-135-211-43 5c-54 6-163 51-251 104-177 105-386 335-540 594l-23 37h312 311l-94-137c-51-76-96-143-100-149-8-14 172-140 183-128 7 8 83 118 233 340 41 60 49 81 54 130 4 50 2 64-19 94-13 19-43 45-68 58-44 22-48 22-485 22-430 0-441-1-483-21zm2001-57c-2-100-2-106-10-98-8 7-9 12-12 38-1 9-4 9-13 0-7-7-16-12-22-12-5 0-1 6 10 14 21 16 21 16 23 81 1 29 6 45 14 45s12-19 10-68zm173-364c-2-19-16-29-16-13v20c0 8 4 15 10 15 5 0 8-10 6-22zm-40-10c4-7 3-10-1-5-5 4-16 0-25-8-15-14-19-14-29-1-10 12-9 14 8 9 12-3 21-1 21 6 0 15 17 14 26-1zm68-163c3-9-7-24-27-38-45-33-62-43-53-29 3 6 0 14-8 19-11 6-12 13-6 23 8 13 10 13 10-1 0-9 7-20 16-23 11-4 15-2 11 6-2 7 2 19 9 26 8 7 14 8 14 2 0-5 4-10 8-10 5 0 9 7 9 15 0 9-10 15-24 15-16 0-22-4-17-12 4-7 3-8-5-4-18 12-2 26 29 26 15 0 30-7 34-15zm-443-414c-6-10-7-21-4-25 3-3 1-6-5-6-12 0-48-59-44-72 1-5-2-8-8-8-9 0-41-54-39-66 0-4-4-10-9-13-9-6-127-195-386-619-65-106-120-192-121-190-15 16-215 471-215 490 0 23 48 106 150 259l44 66 91 7c99 7 167 21 265 56 68 24 193 85 245 119 38 25 48 26 36 2z"/>
        <path d="m2366 2055c-8-19-20-35-25-35-14 0-14-37 0-46 8-4 9 1 4 16-4 12-3 20 1 17 5-3 19 15 30 39 12 24 18 44 13 44s-15-16-23-35z"/>
        <path d="m2323 1775c0-14 3-25 8-25s8 11 7 25-5 25-9 25-6-11-6-25z"/>
        <path d="m2154 1440c1-43-3-61-13-65-11-4-12-8-2-18 9-9 14-9 21 3 5 8 12 11 16 7 9-9-16-38-27-31-5 3-6-2-3-10 8-20 23-20 30-1 4 8 9 13 13 11 4-3 7 4 7 15 0 10-5 19-11 19-5 0-3 5 5 10s15 25 16 45c1 31 0 33-12 17-16-20-18-36-4-27 6 3 10 0 10-8s-7-17-15-21c-12-4-15 5-15 50 0 39 3 53 12 48 7-4 8-3 4 4s-13 12-20 12c-9 0-12-17-12-60z"/>
    </g>
</svg>
